<?xml version="1.0" encoding="UTF-8"?>
<svg width="24px" height="24px" viewBox="0 0 24 24" version="1.1" xmlns="http://www.w3.org/2000/svg">
    <g stroke="none" stroke-width="1" fill="none" fill-rule="evenodd">
        <circle fill="#E1F5FE" cx="12" cy="12" r="12"/>
        <path d="M17,10 C17,7.23858 14.7614,5 12,5 C9.23858,5 7,7.23858 7,10 L7,13 C7,14.1046 7.89543,15 9,15 L15,15 C16.1046,15 17,14.1046 17,13 L17,10 Z" fill="#039BE5" fill-rule="nonzero"/>
        <circle fill="#FFFFFF" cx="9.5" cy="10.5" r="1.5"/>
        <circle fill="#FFFFFF" cx="14.5" cy="10.5" r="1.5"/>
        <path d="M12,16 L12,19" stroke="#039BE5" stroke-width="2" stroke-linecap="round"/>
        <path d="M9,19 L15,19" stroke="#039BE5" stroke-width="2" stroke-linecap="round"/>
        <path d="M7,12 L5,12 L5,10 L7,10" stroke="#039BE5" stroke-width="2" stroke-linecap="round" stroke-linejoin="round"/>
        <path d="M17,12 L19,12 L19,10 L17,10" stroke="#039BE5" stroke-width="2" stroke-linecap="round" stroke-linejoin="round"/>
    </g>
</svg>
